<?xml version="1.0" encoding="UTF-8"?>
<!DOCTYPE svg PUBLIC "-//W3C//DTD SVG 1.1//EN" "http://www.w3.org/Graphics/SVG/1.1/DTD/svg11.dtd">
<svg xmlns="http://www.w3.org/2000/svg" version="1.1" width="54px" height="54px" style="shape-rendering:geometricPrecision; text-rendering:geometricPrecision; image-rendering:optimizeQuality; fill-rule:evenodd; clip-rule:evenodd" xmlns:xlink="http://www.w3.org/1999/xlink" >
<g><path style="opacity:0.865"  fill="#5db442" d="M 24.5,-0.5 C 25.8333,-0.5 27.1667,-0.5 28.5,-0.5C 34.3653,1.18892 37.3653,5.18892 37.5,11.5C 30.1667,11.5 22.8333,11.5 15.5,11.5C 15.4905,5.18345 18.4905,1.18345 24.5,-0.5 Z" /></g>
<g><path style="opacity:0.9" fill="#5db442" d="M 53.5,28.5 C 53.5,29.5 53.5,30.5 53.5,31.5C 50.272,32.4137 46.9387,32.7471 43.5,32.5C 43.7428,35.8826 43.0761,39.0492 41.5,42C 44,44.5 46.5,47 49,49.5C 49.2997,51.0657 48.7997,52.399 47.5,53.5C 46.8333,53.5 46.1667,53.5 45.5,53.5C 43.5211,50.8544 41.1878,48.5211 38.5,46.5C 35.5021,48.6682 32.1687,49.6682 28.5,49.5C 28.5,39.5 28.5,29.5 28.5,19.5C 27.1667,19.5 25.8333,19.5 24.5,19.5C 24.5,29.5 24.5,39.5 24.5,49.5C 20.6565,49.6066 17.1565,48.6066 14,46.5C 11.4974,48.8475 8.99743,51.1808 6.5,53.5C 6.16667,53.5 5.83333,53.5 5.5,53.5C 3.86001,52.2099 3.36001,50.5433 4,48.5C 6.54018,46.2953 8.70685,43.7953 10.5,41C 9.28695,38.3135 8.62028,35.4802 8.5,32.5C 5.5,32.5 2.5,32.5 -0.5,32.5C -0.5,31.1667 -0.5,29.8333 -0.5,28.5C 2.39147,27.5975 5.39147,27.2641 8.5,27.5C 8.66501,24.1501 8.49834,20.8168 8,17.5C 5.77764,15.6152 3.94431,13.4485 2.5,11C 2.66667,9.5 3.5,8.66667 5,8.5C 7.44852,9.94431 9.61518,11.7776 11.5,14C 21.1667,14.6667 30.8333,14.6667 40.5,14C 42.1667,12.3333 43.8333,10.6667 45.5,9C 49.1114,7.74576 50.6114,8.91242 50,12.5C 48,14.5 46,16.5 44,18.5C 43.502,21.4816 43.3354,24.4816 43.5,27.5C 46.9387,27.2529 50.272,27.5863 53.5,28.5 Z"/></g>
</svg>
